PathFileType	4	(X/Y/Z)	/Users/niels/Desktop/University/Third Semester/Perception and Action/Exam/Gymnastics Motion Tracking/Code for Gym Tracking/Analyzed Data/Webcam_Backflip/id8_3_baseline_Sports2D/id8_3_baseline_Sports2D_px_person00.trc
DataRate	CameraRate	NumFrames	NumMarkers	Units	OrigDataRate	OrigDataStartFrame	OrigNumFrames
29.8125	29.8125	8	22	m	29.8125	40	160
Frame#	Time	Hip			RHip			RKnee			RAnkle			RBigToe			RSmallToe			RHeel			LHip			LKnee			LAnkle			LBigToe			LSmallToe			LHeel			Neck			Head			Nose			RShoulder			RElbow			RWrist			LShoulder			LElbow			LWrist		
		X1	Y1	Z1	X2	Y2	Z2	X3	Y3	Z3	X4	Y4	Z4	X5	Y5	Z5	X6	Y6	Z6	X7	Y7	Z7	X8	Y8	Z8	X9	Y9	Z9	X10	Y10	Z10	X11	Y11	Z11	X12	Y12	Z12	X13	Y13	Z13	X14	Y14	Z14	X15	Y15	Z15	X16	Y16	Z16	X17	Y17	Z17	X18	Y18	Z18	X19	Y19	Z19	X20	Y20	Z20	X21	Y21	Z21	X22	Y22	Z22
40	1.341719077568134	0.9427457107263137	-0.6235725738932655	0.0	0.9442015369462955	-0.6238810097825022	0.0	1.0120278139774008	-0.6978293597764123	0.0	0.9763714347445149	-0.7895835790402693	0.0	1.0075805926415426	-0.8018277103497002	0.0	0.9993712078772106	-0.8033202623373067	0.0	0.9659694195119496	-0.7981248900953292	0.0	0.9483414451245278	-0.6217758289961912	0.0	1.0101753686343622	-0.6951476726466252	0.0	0.9766820920029778	-0.7850707866911752	0.0	1.0112398754271639	-0.8010561196187129	0.0	1.005682814926966	-0.7981015277236196	0.0	0.9640385986735758	-0.791487233791215	0.0	1.0202018787442166	-0.5281685492072838	0.0	1.044094038274291	-0.47471438086569206	0.0	1.0560098360198689	-0.5020621415770293	0.0	1.0131529548327995	-0.5465806589041612	0.0	0.989381118488026	-0.5907067752299208	0.0	0.9727879592990337	-0.6265022678264901	0.0	1.010084491646067	-0.5379788767454343	0.0	0.9893156923506081	-0.5807247049999688	0.0	0.9776816894907014	-0.6189648656021428	0.0
41	1.3752620545073373	0.9445241320711535	-0.6413581129017369	0.0	0.945623034507043	-0.6416258381193188	0.0	1.0129496541916543	-0.7163045050494692	0.0	0.9766214827934375	-0.8056445094115509	0.0	1.0044521514088864	-0.8169736840673147	0.0	0.9957657162143069	-0.817822392078542	0.0	0.9663483764216373	-0.8132938369667758	0.0	0.9494139263299052	-0.6394688073823906	0.0	1.011426439911955	-0.7138384579619256	0.0	0.9766307411801203	-0.8012752002763992	0.0	1.011027798446823	-0.8154354729152987	0.0	1.004076372691403	-0.8135127353749447	0.0	0.9644948662198479	-0.8065741574705189	0.0	1.0119139315776946	-0.538440009289685	0.0	1.032735483605008	-0.4837136970694509	0.0	1.0465680051651	-0.5118746369537178	0.0	1.0063185723736732	-0.5572690877188826	0.0	1.004947637728054	-0.6024138632673988	0.0	1.0089820798726923	-0.6368847948955687	0.0	1.0028049800561194	-0.5490649073877021	0.0	1.0041249947680793	-0.5938643422962963	0.0	1.0108396129313693	-0.6296514427346308	0.0
42	1.4088050314465406	0.9475529657410197	-0.6548433742357587	0.0	0.9482523835028598	-0.6550538801012225	0.0	1.0128393642528357	-0.7319697619986797	0.0	0.9774192271875772	-0.819517317180101	0.0	1.0025105506667666	-0.8304440577761523	0.0	0.9928400946141148	-0.8308637583201861	0.0	0.9673422518097304	-0.8265576163767914	0.0	0.9516846502985183	-0.6528442387282637	0.0	1.0114178162891792	-0.7297333585076206	0.0	0.9770648171878474	-0.8151830063253571	0.0	1.010562180421216	-0.8278722760957603	0.0	1.0021273688280685	-0.8268448931674148	0.0	0.9652544753186102	-0.8196409433298865	0.0	1.002466022367632	-0.543872735212648	0.0	1.0195108287482386	-0.48778814556539407	0.0	1.0354215358863397	-0.5166141842491948	0.0	0.9984791219446639	-0.5620750739808307	0.0	1.0198891391582265	-0.6004569149939746	0.0	1.0435318016695976	-0.6265764714971465	0.0	0.9952133875683664	-0.5548124286819486	0.0	1.0183572648345645	-0.5933136239015219	0.0	1.042525791348486	-0.6203784453505438	0.0
43	1.442348008385744	0.9519016014245637	-0.66124040619059	0.0	0.9522311529632795	-0.6613593086568715	0.0	1.0117359957804188	-0.74161764366101	0.0	0.9784528799402057	-0.8285208370203263	0.0	1.0015334559755407	-0.8397839608136394	0.0	0.9907600881287935	-0.8401634905854133	0.0	0.9686604491197645	-0.8356146109159462	0.0	0.9553049695438491	-0.6591334617386744	0.0	1.0101627524909227	-0.7395538208547484	0.0	0.97776833251696	-0.8240971961949991	0.0	1.0096279515086026	-0.8361323936378152	0.0	1.000035601051345	-0.835766169626802	0.0	0.9662427790131796	-0.8284051724563513	0.0	0.992395027242398	-0.5430854098441968	0.0	1.0049453232473353	-0.4859852982699841	0.0	1.022835675610968	-0.5147785436061639	0.0	0.9898221217754138	-0.5597508173918252	0.0	1.0294839974466077	-0.5834067303018909	0.0	1.0670662898966912	-0.5948695635950382	0.0	0.9873489683237686	-0.5534687364717146	0.0	1.0271957213095722	-0.5773356565022657	0.0	1.0638952810896518	-0.5899037485026551	0.0
44	1.4758909853249473	0.9573473089592021	-0.6584211177479532	0.0	0.957481174143032	-0.6583803144921005	0.0	1.0099385866090973	-0.7427561833408799	0.0	0.9794425299517077	-0.8304432528288265	0.0	1.0006356735618565	-0.8432509186455085	0.0	0.9893144620366562	-0.8439488394836264	0.0	0.9700293518002396	-0.8384609169423596	0.0	0.9599607044142439	-0.6562088525247626	0.0	1.007950048335832	-0.7407395628947927	0.0	0.9785200268517164	-0.8258577190984658	0.0	1.0080194506681937	-0.8384851233417444	0.0	0.9979705069656752	-0.8385593184649348	0.0	0.9673202484076849	-0.8308796822882555	0.0	0.9820376473416559	-0.5350182769342767	0.0	0.9893174267782973	-0.47760026278442375	0.0	1.008855567203104	-0.5053206588245494	0.0	0.9803863258167529	-0.5495721429374713	0.0	1.0297292161510305	-0.5528963411321076	0.0	1.0725921916550927	-0.5464364892157368	0.0	0.9788522471218534	-0.5440134105009223	0.0	1.0267178278400046	-0.5476768949832578	0.0	1.0682317285139404	-0.5426215550953807	0.0
45	1.5094339622641506	0.9633014112097332	-0.6455137359717524	0.0	0.9635247833055349	-0.6452628143818225	0.0	1.008279252984454	-0.7339955956589376	0.0	0.9804687218720438	-0.8238402858233946	0.0	0.9994535396428621	-0.8397058090442467	0.0	0.988522650245763	-0.8408860865095403	0.0	0.9714406304415393	-0.8334993870321149	0.0	0.9650072770124448	-0.6432132717340618	0.0	1.0056036083359337	-0.7318334676718429	0.0	0.9793993413769729	-0.8190222370349262	0.0	1.0060234057926751	-0.8336443004036734	0.0	0.9963365310489651	-0.8340112631218969	0.0	0.9684442604664039	-0.8254337662192247	0.0	0.9714598809342039	-0.5194786507904938	0.0	0.9726653479322607	-0.4624269418779341	0.0	0.9934483986612176	-0.48814872097485734	0.0	0.9700855844790263	-0.5316880507478884	0.0	1.0187957978335016	-0.5128401528655223	0.0	1.0579018581766175	-0.4889672843372527	0.0	0.9692929102428464	-0.5266709303080878	0.0	1.0154272738521286	-0.5087363608753966	0.0	1.0534075049835638	-0.4863924469252458	0.0
46	1.542976939203354	0.9688882673242003	-0.6231788093957997	0.0	0.9695023652252149	-0.6227475753915036	0.0	1.0082246928902743	-0.7150211967135826	0.0	0.982171060620668	-0.8080104806125732	0.0	0.9987502970231555	-0.82840886686629	0.0	0.9889621899827624	-0.8299491644409045	0.0	0.9733524728642412	-0.8195179499466743	0.0	0.969652307758812	-0.6208394056845273	0.0	1.0046600315639336	-0.7124917662328604	0.0	0.9810184641597534	-0.8028328311964069	0.0	1.0045095861381597	-0.820710171058444	0.0	0.9957939219609971	-0.8213175098655157	0.0	0.9699254872741292	-0.8108817735398077	0.0	0.9605516066264281	-0.4973737806725224	0.0	0.9550798755104141	-0.44097181905049787	0.0	0.9768321798660037	-0.4642434600559235	0.0	0.9589128075142397	-0.5071678505786614	0.0	0.99757742974174	-0.46808601400776645	0.0	1.0257335889392216	-0.43016582270791615	0.0	0.9584936754983273	-0.5027809236336304	0.0	0.9945915556180192	-0.4657516254629285	0.0	1.0221259455032772	-0.4292759164445598	0.0
47	1.5765199161425574	0.9732005800141803	-0.5935764705880001	0.0	0.9744551775384174	-0.593041820030782	0.0	1.0114868773460786	-0.6863977344016178	0.0	0.9856040618216428	-0.782879022388483	0.0	0.9999506774180592	-0.8089938953412625	0.0	0.9915865143653609	-0.8104955313364491	0.0	0.9766312979508852	-0.7957963787750149	0.0	0.9732165758280956	-0.591197233354611	0.0	1.0070223564039136	-0.6832914517280717	0.0	0.9844301166129731	-0.777234617037453	0.0	1.0048007882161034	-0.7993403326666899	0.0	0.9973259010696547	-0.8002186665095188	0.0	0.9725152358686014	-0.7867217036252822	0.0	0.9491490254571073	-0.4705071468450882	0.0	0.9369388905460009	-0.4145473100625064	0.0	0.9595806571579439	-0.4354461117122071	0.0	0.9470279869172168	-0.4778838010070974	0.0	0.9693442101142545	-0.42332772669362284	0.0	0.9824422190907497	-0.3759506355314556	0.0	0.9466160967661739	-0.47435420046748	0.0	0.9675800916023007	-0.42333155753494983	0.0	0.9806078549246662	-0.37735425152028673	0.0
